<svg width="21" height="20" viewBox="0 0 21 20" fill="none" xmlns="http://www.w3.org/2000/svg">
<rect x="0.398438" width="20" height="19.9995" rx="9.99975" fill="white"/>
<path d="M15.1641 7.46828L12.9297 5.23437C12.8554 5.16007 12.7672 5.10113 12.6701 5.06091C12.573 5.0207 12.469 5 12.3639 5C12.2589 5 12.1548 5.0207 12.0577 5.06091C11.9607 5.10113 11.8725 5.16007 11.7982 5.23437L5.63293 11.3996C5.55833 11.4736 5.49917 11.5618 5.45892 11.6588C5.41866 11.7559 5.39811 11.86 5.39844 11.9651V14.1995C5.39844 14.4117 5.48272 14.6152 5.63275 14.7652C5.78277 14.9152 5.98625 14.9995 6.19841 14.9995H14.5981C14.7042 14.9995 14.8059 14.9574 14.8809 14.8823C14.9559 14.8073 14.9981 14.7056 14.9981 14.5995C14.9981 14.4934 14.9559 14.3917 14.8809 14.3167C14.8059 14.2417 14.7042 14.1995 14.5981 14.1995H9.56428L15.1641 8.59974C15.2384 8.52545 15.2973 8.43726 15.3375 8.34019C15.3777 8.24312 15.3984 8.13908 15.3984 8.03401C15.3984 7.92894 15.3777 7.8249 15.3375 7.72784C15.2973 7.63077 15.2384 7.54257 15.1641 7.46828ZM10.5982 7.56528L11.4327 8.39975L7.19837 12.6341L6.3639 11.7996L10.5982 7.56528ZM6.19841 14.1995V12.7651L7.63286 14.1995H6.19841ZM8.59832 14.034L7.76435 13.1996L11.9982 8.96523L12.8327 9.79969L8.59832 14.034ZM13.3981 9.23422L11.1642 6.9998L12.3642 5.79985L14.5981 8.03426L13.3981 9.23422Z" fill="#699BF7"/>
</svg>
