<svg xmlns="http://www.w3.org/2000/svg" width="26" height="24" viewBox="0 0 26 24" fill="none">
    <path d="M13.576 17.271L8.46602 14.484C7.97551 14.9709 7.35183 15.3017 6.67361 15.4346C5.99538 15.5676 5.29298 15.4968 4.65494 15.2311C4.01691 14.9654 3.47181 14.5168 3.08837 13.9418C2.70492 13.3668 2.50031 12.6911 2.50031 12C2.50031 11.3089 2.70492 10.6332 3.08837 10.0582C3.47181 9.48317 4.01691 9.03455 4.65494 8.76889C5.29298 8.50322 5.99538 8.43241 6.67361 8.56536C7.35183 8.69832 7.97551 9.02909 8.46602 9.51599L13.576 6.72899C13.4008 5.90672 13.5273 5.04885 13.9326 4.31224C14.3379 3.57563 14.9948 3.00952 15.7831 2.71742C16.5715 2.42532 17.4386 2.42676 18.226 2.72147C19.0134 3.01619 19.6684 3.58448 20.0712 4.32243C20.4741 5.06037 20.5978 5.91866 20.4198 6.74034C20.2418 7.56202 19.774 8.29218 19.1019 8.79729C18.4298 9.3024 17.5984 9.54871 16.7596 9.49119C15.9209 9.43366 15.1308 9.07613 14.534 8.48399L9.42402 11.271C9.52581 11.7513 9.52581 12.2477 9.42402 12.728L14.534 15.516C15.1308 14.9238 15.9209 14.5663 16.7596 14.5088C17.5984 14.4513 18.4298 14.6976 19.1019 15.2027C19.774 15.7078 20.2418 16.438 20.4198 17.2596C20.5978 18.0813 20.4741 18.9396 20.0712 19.6776C19.6684 20.4155 19.0134 20.9838 18.226 21.2785C17.4386 21.5732 16.5715 21.5747 15.7831 21.2826C14.9948 20.9905 14.3379 20.4243 13.9326 19.6877C13.5273 18.9511 13.4008 18.0933 13.576 17.271Z" fill="white"/>
</svg>