<svg xmlns="http://www.w3.org/2000/svg" width="26" height="24" viewBox="0 0 26 24" fill="none">
<path d="M12.031 0.102022C11.71 0.103022 11.355 0.247022 11.031 0.570022L5.312 7.03902H1C0.449 7.03902 0 7.48802 0 8.03902V16.039C0 16.59 0.449 17.039 1 17.039H5.313L11 23.477C12 24.477 13 23.965 13 22.602V1.31902C13 0.528022 12.567 0.0970217 12.031 0.100022V0.102022ZM19.281 2.10202C19.0683 2.13912 18.8734 2.24406 18.7253 2.40114C18.5772 2.55822 18.4839 2.75902 18.4593 2.97351C18.4348 3.188 18.4803 3.40468 18.5891 3.59114C18.698 3.77761 18.8642 3.92386 19.063 4.00802C20.5507 4.75595 21.8006 5.90351 22.6726 7.32202C23.5447 8.74053 24.0043 10.3739 24 12.039C24 15.563 22 18.589 19.062 20.07C18.9283 20.1165 18.806 20.1909 18.7032 20.2882C18.6004 20.3855 18.5194 20.5036 18.4656 20.6345C18.4118 20.7655 18.3865 20.9063 18.3912 21.0478C18.3959 21.1893 18.4306 21.3282 18.493 21.4552C18.5554 21.5823 18.644 21.6947 18.7531 21.7849C18.8622 21.8752 18.9892 21.9412 19.1257 21.9787C19.2622 22.0163 19.4051 22.0244 19.5449 22.0025C19.6848 21.9807 19.8184 21.9294 19.937 21.852C23.53 20.039 26 16.327 26 12.039C26 7.75102 23.529 4.03902 19.937 2.22602C19.7659 2.13051 19.5704 2.08739 19.375 2.10202C19.3437 2.10055 19.3123 2.10055 19.281 2.10202ZM16.906 5.97602C16.6907 5.99183 16.4863 6.07691 16.3233 6.21852C16.1603 6.36014 16.0476 6.5507 16.0019 6.76171C15.9562 6.97272 15.98 7.19285 16.0698 7.38919C16.1596 7.58554 16.3105 7.74755 16.5 7.85102C18.043 8.81002 19 10.329 19 12.039C19 13.761 18.028 15.3 16.469 16.258C16.3465 16.3219 16.2386 16.4105 16.1521 16.5182C16.0655 16.6258 16.0022 16.7503 15.9662 16.8836C15.9301 17.017 15.9221 17.1564 15.9426 17.293C15.9631 17.4296 16.0117 17.5605 16.0853 17.6774C16.1588 17.7943 16.2559 17.8947 16.3702 17.9722C16.4845 18.0498 16.6137 18.1028 16.7495 18.1279C16.8853 18.1531 17.0249 18.1498 17.1594 18.1183C17.2939 18.0868 17.4204 18.0278 17.531 17.945C19.601 16.675 21 14.515 21 12.039C21 9.57802 19.613 7.40602 17.562 6.13302C17.3944 6.02598 17.1988 5.97132 17 5.97602C16.9687 5.97455 16.9373 5.97455 16.906 5.97602Z" fill="white"/>
</svg>